PathFileType	4	(X/Y/Z)	c:/Users/goper/Files/vsCode/490R/osim_files/C15/C15_Static02.trc
DataRate	CameraRate	NumFrames	NumMarkers	Units                	OrigDataRate	OrigDataStartFrame	OrigNumFrames
250.00	250.00	10	36	mm	250.0	893	1020
                Frame#	Time	LPSIS			LASIS			LTH1			LTH2			LTH3			LTH4			LLFE			LMFE			LSH1			LSH2			LSH3			LSH4			LLMAL			LMMAL			LCAL			LMTP5			LTOE			LMTP1			RPSIS			RASIS			RTH1			RTH2			RTH3			RTH4			RLFE			RMFE			RSH1			RSH2			RSH3			RSH4			RLMAL			RMMAL			RCAL			RMTP1			RTOE			RMTP5		
		X1	Y1	Z1	X2	Y2	Z2	X3	Y3	Z3	X4	Y4	Z4	X5	Y5	Z5	X6	Y6	Z6	X7	Y7	Z7	X8	Y8	Z8	X9	Y9	Z9	X10	Y10	Z10	X11	Y11	Z11	X12	Y12	Z12	X13	Y13	Z13	X14	Y14	Z14	X15	Y15	Z15	X16	Y16	Z16	X17	Y17	Z17	X18	Y18	Z18	X19	Y19	Z19	X20	Y20	Z20	X21	Y21	Z21	X22	Y22	Z22	X23	Y23	Z23	X24	Y24	Z24	X25	Y25	Z25	X26	Y26	Z26	X27	Y27	Z27	X28	Y28	Z28	X29	Y29	Z29	X30	Y30	Z30	X31	Y31	Z31	X32	Y32	Z32	X33	Y33	Z33	X34	Y34	Z34	X35	Y35	Z35	X36	Y36	Z36

893	3.56800	-434.51767	1029.29504	403.14664	-271.66287	1009.07153	330.52466	-358.50446	634.64380	251.55850	-362.32953	587.15662	264.85959	-306.45093	638.60358	252.90019	-307.89182	593.22461	259.35196	-342.36179	500.55536	277.14594	-335.10315	476.70908	395.91348	-411.41348	395.88351	259.83905	-414.31152	353.19238	250.84540	-349.68832	388.57098	256.31549	-360.19830	345.59143	247.48735	-403.07339	84.75719	288.49887	-382.91168	103.83395	379.24008	-463.91745	57.86155	331.70026	-280.97504	35.83758	263.44229	-224.64581	59.10215	326.38034	-260.56412	38.85129	381.54895	-426.83401	1030.32397	522.88043	-269.52628	1006.08417	581.48486	-342.16974	642.90552	653.24646	-342.28201	596.11121	647.86646	-282.67984	637.80286	640.27991	-291.05798	591.75970	639.65021	-338.09848	498.10056	625.37305	-354.59009	474.32166	509.38193	-426.71420	399.45776	650.30524	-428.20697	356.31104	657.33685	-364.99850	389.09268	652.29553	-376.57520	348.82187	660.06067	-416.76666	84.28899	617.00183	-387.56290	103.05074	529.38251	-477.07697	58.23395	572.62268	-273.49554	37.77055	535.06433	-239.31485	55.79352	588.54596	-299.54208	30.88937	654.07861
894	3.57200	-434.52277	1029.28137	403.11023	-271.63889	1009.07538	330.48239	-358.49091	634.61865	251.54599	-362.35483	587.16345	264.88040	-306.44659	638.60797	252.88510	-307.85791	593.23962	259.33508	-342.35687	500.56427	277.14142	-335.08914	476.71622	395.88593	-411.40222	395.88272	259.80368	-414.33774	353.17059	250.82451	-349.67441	388.57483	256.28818	-360.20239	345.57291	247.46449	-403.08609	84.73683	288.49329	-382.93344	103.83041	379.21747	-463.94550	57.88651	331.68509	-280.97845	35.82836	263.41052	-224.66046	59.07707	326.37503	-260.42236	38.94812	381.57474	-426.85071	1030.32935	522.87115	-269.51398	1006.06018	581.48138	-342.17111	642.90167	653.22339	-342.26523	596.12177	647.84332	-282.65430	637.80780	640.27533	-291.07471	591.74579	639.64154	-338.07535	498.13727	625.37634	-354.55392	474.32797	509.38391	-426.69958	399.44168	650.29254	-428.21921	356.28113	657.30457	-365.01102	389.06174	652.28333	-376.59476	348.80701	660.02698	-416.76111	84.28185	616.97107	-387.58344	103.03411	529.37170	-477.10455	58.22040	572.60699	-273.49597	37.74884	535.04150	-239.29843	55.78082	588.51984	-299.54327	30.88650	654.06146
895	3.57600	-434.53302	1029.30615	403.08127	-271.67584	1009.02838	330.50439	-358.41483	634.58875	251.62865	-362.28839	587.15399	264.81613	-306.46259	638.56641	252.88792	-307.86823	593.21277	259.33545	-342.34341	500.54987	277.14413	-335.11346	476.69888	395.90009	-411.35788	395.90036	259.75491	-414.31979	353.18478	250.79504	-349.69434	388.53677	256.33423	-360.21619	345.53381	247.46597	-403.07233	84.74110	288.46371	-382.97302	103.81005	379.21762	-463.94751	57.92106	331.61090	-280.98297	35.79650	263.41901	-224.68483	59.04992	326.37723	-260.45483	38.91901	381.57800	-426.87140	1030.36499	522.84778	-269.56497	1006.02582	581.51526	-342.17081	642.88013	653.22296	-342.28699	596.12366	647.85254	-282.69687	637.77997	640.29041	-291.07794	591.73584	639.64923	-338.12769	498.14575	625.41632	-354.56445	474.30411	509.35526	-426.72867	399.44083	650.29279	-428.25418	356.26352	657.33502	-365.05798	389.06238	652.31305	-376.62357	348.79095	660.05402	-416.80612	84.27983	616.97632	-387.58011	103.01845	529.35498	-477.12802	58.23602	572.59711	-273.51193	37.72655	535.06183	-239.36176	55.74713	588.54889	-299.55606	30.87729	654.05505
896	3.58000	-434.47705	1029.30298	403.08215	-271.64371	1009.03595	330.48251	-358.44409	634.60760	251.51680	-362.29208	587.15967	264.80624	-306.46106	638.56238	252.86363	-307.83887	593.20953	259.31323	-342.33716	500.53488	277.11493	-335.09091	476.73141	395.89487	-411.30814	395.87997	259.72336	-414.31842	353.18491	250.79559	-349.67715	388.51630	256.29889	-360.21964	345.54047	247.44543	-403.04913	84.74152	288.45538	-382.97525	103.81785	379.19843	-463.91180	57.90741	331.56946	-280.96701	35.79996	263.40240	-224.69702	59.05090	326.36792	-260.47385	38.92295	381.55902	-426.83887	1030.35376	522.83661	-269.58490	1006.01416	581.51245	-342.19131	642.91803	653.22198	-342.25150	596.14130	647.83386	-282.70203	637.78174	640.26263	-291.08417	591.73700	639.63525	-338.12143	498.12735	625.38269	-354.58252	474.30728	509.34091	-426.75912	399.46454	650.28436	-428.28516	356.31018	657.32202	-365.40125	388.89279	652.22241	-376.64230	348.79730	660.02960	-416.82108	84.30314	616.98090	-387.56812	103.01763	529.34088	-477.15884	58.26199	572.59290	-273.53473	37.71108	535.05560	-239.34363	55.76524	588.54376	-299.55096	30.89610	654.03900
897	3.58400	-434.48975	1029.33081	403.08762	-271.65506	1009.03284	330.47830	-358.40573	634.58038	251.61452	-362.24011	587.12823	264.76736	-306.44269	638.57660	252.87633	-307.87512	593.18842	259.31726	-342.30945	500.53891	277.10779	-335.05063	476.73965	395.89462	-411.31454	395.71875	259.91135	-414.30521	353.18866	250.76569	-349.69580	388.49368	256.26459	-360.20230	345.54449	247.44295	-403.06592	84.72966	288.44489	-383.01410	103.80476	379.21329	-463.93024	57.89217	331.56509	-280.95743	35.81612	263.38727	-224.70142	59.05125	326.36322	-260.68405	38.78744	381.52194	-426.80728	1030.35510	522.83051	-269.60535	1006.00543	581.51477	-342.22552	642.90466	653.23010	-342.24326	596.15448	647.82324	-282.71201	637.78204	640.28320	-291.08643	591.73816	639.62329	-338.17044	498.12332	625.37689	-354.56253	474.32834	509.34735	-426.79041	399.47665	650.28412	-428.30927	356.30756	657.31555	-365.09763	389.06274	652.28131	-376.67068	348.81006	660.03925	-416.85776	84.28975	616.96942	-387.57428	103.02250	529.33240	-477.18619	58.28173	572.59833	-273.55673	37.64079	535.09851	-239.37910	55.74841	588.52655	-299.58533	30.89949	654.03607
898	3.58800	-434.47571	1029.33691	403.09433	-271.68463	1008.99561	330.50293	-358.44183	634.60547	251.49113	-362.25815	587.12604	264.79691	-306.45779	638.55115	252.86870	-307.88791	593.18323	259.32913	-342.31430	500.55215	277.10318	-335.07574	476.72791	395.90979	-411.29395	395.86359	259.69348	-414.29056	353.20844	250.75217	-349.67984	388.48434	256.29718	-360.20303	345.53580	247.44919	-403.04355	84.73315	288.44904	-383.01740	103.81799	379.21823	-463.88431	57.87980	331.55685	-280.97314	35.80226	263.40076	-224.70337	59.06938	326.35486	-260.66458	38.79640	381.53308	-426.76639	1030.36060	522.85522	-269.60785	1005.99347	581.51788	-342.20691	642.92596	653.24207	-342.23224	596.13806	647.84521	-282.73871	637.76367	640.28815	-291.08917	591.74042	639.63708	-338.15585	498.13525	625.38617	-354.57999	474.32535	509.35571	-426.78183	399.49014	650.28778	-428.28815	356.32996	657.33813	-365.47217	388.87616	652.23694	-376.64569	348.80917	660.03986	-416.88400	84.28699	616.97241	-387.56711	103.00107	529.34076	-477.18549	58.29236	572.57776	-273.56406	37.69490	535.04547	-239.37299	55.74934	588.52887	-299.60028	30.89903	654.04291
899	3.59200	-434.46219	1029.36499	403.09769	-271.66537	1009.02417	330.46866	-358.45694	634.62122	251.48325	-362.28662	587.12915	264.81155	-306.44742	638.56512	252.85448	-307.89151	593.19366	259.31226	-342.32648	500.54813	277.10977	-335.03036	476.75436	395.88934	-411.31366	395.72012	259.92499	-414.29791	353.23532	250.74825	-349.68701	388.50879	256.28387	-360.18091	345.57812	247.44252	-403.04980	84.75051	288.43768	-382.99445	103.85231	379.19614	-463.91354	57.90166	331.55621	-280.97513	35.81527	263.38013	-224.66232	59.09749	326.34836	-260.65106	38.82034	381.50540	-426.75500	1030.38831	522.85632	-269.57193	1006.01416	581.51880	-342.15002	642.96246	653.22461	-342.20834	596.17175	647.84595	-282.68466	637.81812	640.26251	-291.05008	591.77856	639.61169	-338.13455	498.17328	625.40448	-354.58176	474.34900	509.33270	-426.75485	399.49707	650.29089	-428.27914	356.33981	657.32263	-365.43808	388.91571	652.22113	-376.61392	348.84442	660.02893	-416.83884	84.30925	616.96240	-387.56540	103.03658	529.32806	-477.15686	58.30224	572.57159	-273.52365	37.75517	535.02020	-239.36604	55.76614	588.52020	-299.56284	30.92693	654.02692
900	3.59600	-434.46289	1029.34277	403.12292	-271.64706	1009.04559	330.45645	-358.45013	634.61969	251.49785	-362.23779	587.15002	264.78915	-306.44638	638.58307	252.86041	-307.83310	593.20905	259.31390	-342.32837	500.56406	277.11469	-335.03384	476.75037	395.90204	-411.34241	395.88980	259.75446	-414.29321	353.22165	250.76874	-349.69412	388.51004	256.28235	-360.18112	345.58252	247.43379	-403.06479	84.76509	288.44669	-382.95547	103.85741	379.18805	-463.88742	57.86485	331.56772	-280.98026	35.81639	263.39749	-224.67198	59.11533	326.33176	-260.45340	38.95374	381.53552	-426.75717	1030.35620	522.86053	-269.54459	1006.03894	581.50800	-342.12650	642.95508	653.23553	-342.20798	596.15039	647.85718	-282.66223	637.81256	640.24255	-291.04578	591.77759	639.59796	-338.10315	498.17795	625.39996	-354.59338	474.36273	509.34143	-426.75037	399.50873	650.29010	-428.21771	356.34268	657.31726	-365.39151	388.94745	652.20312	-376.61423	348.85522	660.02509	-416.81262	84.33383	616.97986	-387.57086	103.03867	529.33899	-477.13925	58.30597	572.57123	-273.49066	37.77983	535.02283	-239.35664	55.78242	588.49200	-299.56021	30.93747	654.01587
901	3.60000	-434.45187	1029.32556	403.13354	-271.66904	1009.03961	330.50620	-358.44949	634.64758	251.49753	-362.29742	587.16315	264.83307	-306.44449	638.59808	252.87273	-307.87170	593.22913	259.32166	-342.31689	500.57657	277.13425	-335.04095	476.75128	395.92511	-411.35446	395.90567	259.75952	-414.30280	353.24298	250.79451	-349.69644	388.50604	256.28903	-360.20111	345.58670	247.46516	-403.06073	84.76888	288.45758	-382.98367	103.87030	379.21292	-463.91434	57.86448	331.61893	-280.92682	35.98542	263.29636	-224.68367	59.12041	326.34842	-260.50027	38.97192	381.56149	-426.72665	1030.35010	522.86450	-269.50394	1006.05023	581.53564	-342.15244	642.95319	653.23956	-342.22693	596.15936	647.88678	-282.66257	637.82605	640.25781	-291.03415	591.79095	639.62128	-338.06937	498.19250	625.39337	-354.61786	474.35352	509.35822	-426.75079	399.51096	650.30225	-428.24796	356.33551	657.34088	-365.38956	388.97565	652.21777	-376.63541	348.87045	660.04712	-416.82614	84.31900	616.97046	-387.60065	103.05874	529.35529	-477.12372	58.28853	572.57538	-273.52368	37.79496	535.02533	-239.36287	55.81276	588.51721	-299.57318	30.93817	654.03198
902	3.60400	-434.42361	1029.29736	403.13525	-271.63120	1009.05823	330.47568	-358.43973	634.64703	251.51439	-362.31058	587.17926	264.87927	-306.42081	638.60681	252.86159	-307.83524	593.25439	259.31586	-342.32193	500.58542	277.13046	-335.02594	476.74359	395.90982	-411.33127	395.90073	259.78015	-414.30920	353.22913	250.78447	-349.67493	388.57895	256.26254	-360.17807	345.60159	247.45197	-403.08261	84.75848	288.46725	-382.99326	103.89259	379.21164	-463.89078	57.86960	331.63287	-280.93146	35.99193	263.29233	-224.68863	59.12146	326.35461	-260.50217	38.97767	381.56265	-426.73883	1030.32397	522.88489	-269.48660	1006.06244	581.54199	-342.15634	642.94574	653.23438	-342.22607	596.13623	647.85724	-282.64090	637.83527	640.27020	-291.03357	591.78796	639.61957	-338.09564	498.21280	625.39746	-354.59607	474.34238	509.36444	-426.76233	399.49533	650.30322	-428.26669	356.34753	657.31305	-365.04898	389.13904	652.28790	-376.62064	348.86761	660.03253	-416.83466	84.34010	616.98279	-387.57419	103.06802	529.34607	-477.14160	58.28981	572.56897	-273.53082	37.80022	535.03174	-239.34583	55.82671	588.50159	-299.59048	30.92318	654.03516
